<svg width="90" height="100" viewBox="0 0 90 100" fill="none" xmlns="http://www.w3.org/2000/svg">
<path d="M89.6367 29.4C89.636 27.7185 89.2764 26.2327 88.5492 24.9576C87.8348 23.7036 86.765 22.6526 85.33 21.8216C73.4851 14.9918 61.6286 8.18281 49.7875 1.34598C46.5952 -0.496992 43.5 -0.429803 40.3314 1.43963C35.6167 4.2201 12.0121 17.7437 4.97819 21.8178C2.08144 23.4947 0.671878 26.0611 0.671182 29.3968C0.666656 43.1321 0.671182 56.867 0.666656 70.6027C0.667353 72.2472 1.01165 73.7041 1.70685 74.9601C2.42156 76.252 3.50631 77.3319 4.97436 78.1817C12.0086 82.2558 35.6164 95.7784 40.33 98.5595C43.5 100.43 46.5952 100.497 49.7885 98.6532C61.63 91.816 73.4872 85.0074 85.3339 78.1775C86.8019 77.3281 87.8867 76.2475 88.6014 74.9566C89.2955 73.7006 89.6405 72.2437 89.6412 70.5988C89.6412 70.5988 89.6412 43.1356 89.6367 29.4Z" fill="#5C8DBC"/>
<path d="M45.2901 49.8662L1.70682 74.9605C2.42152 76.2524 3.50628 77.3323 4.97433 78.182C12.0086 82.2561 35.6164 95.7787 40.33 98.5599C43.5 100.43 46.5952 100.497 49.7886 98.6535C61.63 91.8164 73.4872 85.0077 85.3339 78.1779C86.802 77.3284 87.8867 76.2478 88.6014 74.957L45.2901 49.8662Z" fill="#1A4674"/>
<path d="M32.3811 57.2993C34.9172 61.7267 39.6848 64.7129 45.1539 64.7129C50.6567 64.7129 55.4514 61.6888 57.9746 57.214L45.29 49.8662L32.3811 57.2993Z" fill="#1A4674"/>
<path d="M89.6367 29.4004C89.636 27.719 89.2764 26.2332 88.5491 24.958L45.29 49.8664L88.6014 74.9572C89.2955 73.7012 89.6405 72.2443 89.6412 70.5994C89.6412 70.5994 89.6412 43.1361 89.6367 29.4004Z" fill="#1B598E"/>
<path d="M87.255 51.6597H83.8706V55.0448H80.4854V51.6597H77.1013V48.2756H80.4854V44.8911H83.8706V48.2756H87.255V51.6597ZM74.9053 51.6597H71.5212V55.0448H68.1367V51.6597H64.7523V48.2756H68.1367V44.8911H71.5212V48.2756H74.9053V51.6597Z" fill="white"/>
<path d="M57.9747 57.2141C55.4515 61.6889 50.6568 64.7131 45.154 64.7131C39.6849 64.7131 34.9173 61.7269 32.3812 57.2994C31.1072 55.0778 30.4381 52.5609 30.4408 49.9999C30.4408 41.8743 37.0284 35.2871 45.154 35.2871C50.5879 35.2871 55.3304 38.2361 57.879 42.6183L70.7391 35.2129C65.6276 26.3894 56.0844 20.4531 45.154 20.4531C28.8352 20.4531 15.6068 33.6819 15.6068 49.9999C15.6068 55.3534 17.031 60.3737 19.5201 64.704C24.6187 73.5743 34.1891 79.5471 45.154 79.5471C56.1391 79.5471 65.7244 73.5502 70.8157 64.6539L57.9747 57.2141Z" fill="white"/>
</svg>
