<svg width="101" height="100" viewBox="0 0 101 100" fill="none" xmlns="http://www.w3.org/2000/svg">
<path d="M46.7036 0H63.045V74.898C54.6746 76.4812 48.5126 77.1042 41.8455 77.1042C21.8867 77.0833 11.4972 68.1667 11.4972 51.0417C11.4972 34.5417 22.5176 23.8333 39.5951 23.8333C42.2451 23.8333 44.264 24.0418 46.7036 24.6666V0ZM47.2762 38.1641C45.3623 37.539 43.7852 37.3307 41.766 37.3307C33.5009 37.3307 28.7268 42.3723 28.7268 51.2076C28.7268 59.8098 33.2908 64.5597 41.6611 64.5597C43.4696 64.5597 44.9418 64.4579 47.2762 64.1453V38.1641Z" fill="#2BA977"/>
<path d="M89.7678 25.8441V63.3445C89.7678 76.2589 88.8004 82.4693 85.9611 87.8237C83.3111 92.9714 79.82 96.2174 72.6063 99.8026L57.4427 92.657C64.6565 89.3045 68.1475 86.3422 70.3771 81.8215C72.7112 77.1987 73.4473 71.8443 73.4473 57.761V25.8444H89.7678V25.8441ZM71.8006 0H88.1419V16.6042H71.8006V0Z" fill="#2BA977"/>
</svg>
