<svg width="71" height="100" viewBox="0 0 71 100" fill="none" xmlns="http://www.w3.org/2000/svg">
<path d="M35.3094 0.272949L37.9779 5.28508C38.5779 6.21001 39.2278 7.0287 39.9934 7.79114C42.2379 10.0076 44.33 12.3732 46.2555 14.8719C50.777 20.8089 53.8268 27.4022 56.0048 34.5329C57.3109 38.8888 58.0202 43.3572 58.0734 47.8756C58.2921 61.384 53.6612 72.9831 44.3243 82.6231C42.8056 84.1517 41.1649 85.5542 39.4184 86.8165C38.4935 86.8165 38.056 86.1072 37.6748 85.4541C36.9806 84.2431 36.5185 82.9131 36.3124 81.5325C35.9843 79.8983 35.7687 78.264 35.8749 76.5766V75.8142C35.7999 75.6517 34.9844 0.657296 35.3094 0.272949Z" fill="#599636"/>
<path d="M35.3094 0.107501C35.2 -0.111232 35.0907 0.0543804 34.9813 0.160623C35.0344 1.25429 34.6532 2.22922 34.0564 3.1604C33.4002 4.08533 32.5315 4.79466 31.6597 5.5571C26.8163 9.75054 23.004 14.8158 19.9511 20.481C15.8889 28.1054 13.7953 36.2767 13.2016 44.8792C12.9298 47.9821 14.1828 58.9313 15.1608 62.0904C17.8294 70.4773 22.6228 77.5049 28.8317 83.6045C30.3566 85.0731 31.9878 86.4355 33.6751 87.7448C34.1657 87.7448 34.2188 87.3073 34.3313 86.9823C34.5464 86.287 34.7104 85.5768 34.8219 84.8575L35.9156 76.6893L35.3094 0.107501Z" fill="#6CAC48"/>
<path d="M37.9779 90.135C38.0873 88.885 38.6872 87.8476 39.3403 86.8133C38.6841 86.5415 38.1967 86.0009 37.8154 85.3978C37.4867 84.8268 37.2146 84.225 37.003 83.6011C36.2405 81.3138 36.0781 78.914 35.8593 76.5766V75.1611C35.5875 75.3799 35.5312 77.2297 35.5312 77.5047C35.3722 79.9751 35.0444 82.4316 34.55 84.8572C34.3876 85.8384 34.2782 86.8165 33.6751 87.6883C33.6751 87.7976 33.6751 87.907 33.7282 88.0695C34.7094 90.9568 34.9781 93.8972 35.1437 96.8938V97.9875C35.1437 99.2936 35.0906 99.0186 36.1749 99.4561C36.6124 99.6186 37.0999 99.6748 37.5373 99.9998C37.8654 99.9998 37.9186 99.7279 37.9186 99.5092L37.7561 97.7125V92.7004C37.7029 91.8254 37.8654 90.9568 37.9748 90.1381L37.9779 90.135Z" fill="#C2BFBF"/>
</svg>
