<svg width="102" height="100" viewBox="0 0 102 100" fill="none" xmlns="http://www.w3.org/2000/svg">
<path d="M50.8737 0C25.3548 0 26.9481 11.0665 26.9481 11.0665L26.9765 22.5318H51.3287V25.974H17.3041C17.3041 25.974 0.974548 24.122 0.974548 49.8704C0.974548 75.6196 15.2274 74.7064 15.2274 74.7064H23.7335V62.7578C23.7335 62.7578 23.2749 48.5049 37.7588 48.5049H61.9119C61.9119 48.5049 75.4818 48.7242 75.4818 35.39V13.3428C75.4818 13.3428 77.5428 0 50.8737 0ZM37.4459 7.71016C38.0213 7.70964 38.5913 7.8226 39.123 8.04258C39.6548 8.26256 40.1379 8.58524 40.5448 8.99215C40.9518 9.39906 41.2744 9.88222 41.4944 10.414C41.7144 10.9457 41.8274 11.5156 41.8268 12.0911C41.8274 12.6666 41.7144 13.2365 41.4944 13.7682C41.2744 14.3 40.9518 14.7831 40.5448 15.1901C40.1379 15.597 39.6548 15.9197 39.123 16.1396C38.5913 16.3596 38.0213 16.4726 37.4459 16.4721C36.8704 16.4726 36.3005 16.3596 35.7687 16.1396C35.237 15.9197 34.7538 15.597 34.3469 15.1901C33.94 14.7831 33.6173 14.3 33.3974 13.7682C33.1774 13.2365 33.0644 12.6666 33.0649 12.0911C33.0644 11.5156 33.1774 10.9457 33.3974 10.414C33.6173 9.88222 33.94 9.39906 34.3469 8.99215C34.7538 8.58524 35.237 8.26256 35.7687 8.04258C36.3005 7.8226 36.8704 7.70964 37.4459 7.71016Z" fill="url(#paint0_linear_10_2006)"/>
<path d="M51.5984 100C77.1174 100 75.524 88.9336 75.524 88.9336L75.4957 77.4687H51.143V74.0265H85.1676C85.1676 74.0265 101.497 75.8785 101.497 50.1292C101.497 24.3804 87.2444 25.2936 87.2444 25.2936H78.7383V37.2418C78.7383 37.2418 79.1969 51.4947 64.713 51.4947H40.5599C40.5599 51.4947 26.9899 51.2754 26.9899 64.61V86.6577C26.9899 86.6577 24.9293 100 51.598 100H51.5984ZM65.0263 92.2907C64.4508 92.2912 63.8809 92.1783 63.3491 91.9583C62.8174 91.7383 62.3342 91.4156 61.9273 91.0087C61.5204 90.6018 61.1977 90.1186 60.9777 89.5869C60.7578 89.0551 60.6448 88.4852 60.6453 87.9098C60.6448 87.3343 60.7577 86.7643 60.9776 86.2325C61.1976 85.7007 61.5203 85.2175 61.9272 84.8105C62.3341 84.4036 62.8173 84.0809 63.349 83.8609C63.8808 83.6409 64.4508 83.5279 65.0263 83.5284C65.6017 83.5279 66.1716 83.6409 66.7034 83.8608C67.2352 84.0808 67.7183 84.4035 68.1252 84.8104C68.5321 85.2173 68.8548 85.7005 69.0748 86.2322C69.2948 86.764 69.4077 87.3339 69.4072 87.9094C69.4077 88.4848 69.2948 89.0547 69.0748 89.5865C68.8548 90.1182 68.5321 90.6014 68.1252 91.0083C67.7183 91.4152 67.2352 91.7379 66.7034 91.9579C66.1716 92.1779 65.6017 92.2908 65.0263 92.2903V92.2907Z" fill="url(#paint1_linear_10_2006)"/>
<defs>
<linearGradient id="paint0_linear_10_2006" x1="10.6347" y1="8.99438" x2="60.4507" y2="58.3134" gradientUnits="userSpaceOnUse">
<stop stop-color="#387EB8"/>
<stop offset="1" stop-color="#366994"/>
</linearGradient>
<linearGradient id="paint1_linear_10_2006" x1="41.2118" y1="40.6642" x2="94.7085" y2="91.2363" gradientUnits="userSpaceOnUse">
<stop stop-color="#FFE052"/>
<stop offset="1" stop-color="#FFC331"/>
</linearGradient>
</defs>
</svg>
