<svg width="101" height="100" viewBox="0 0 101 100" fill="none" xmlns="http://www.w3.org/2000/svg">
<path d="M50.4705 58.8165C55.3395 58.8165 59.2867 54.8694 59.2867 50.0003C59.2867 45.1312 55.3395 41.1841 50.4705 41.1841C45.6014 41.1841 41.6542 45.1312 41.6542 50.0003C41.6542 54.8694 45.6014 58.8165 50.4705 58.8165Z" fill="#61DAFB"/>
<path d="M50.4704 68.0626C76.5972 68.0626 97.7771 59.9757 97.7771 50C97.7771 40.0244 76.5972 31.9375 50.4704 31.9375C24.3437 31.9375 3.16382 40.0244 3.16382 50C3.16382 59.9757 24.3437 68.0626 50.4704 68.0626Z" stroke="#61DAFB" stroke-width="5"/>
<path d="M34.8278 59.0313C47.8912 81.6577 65.4846 95.9566 74.1237 90.9687C82.7629 85.9809 79.1764 63.5951 66.113 40.9687C53.0497 18.3423 35.4563 4.04343 26.8171 9.03126C18.1779 14.0191 21.7645 36.4049 34.8278 59.0313Z" stroke="#61DAFB" stroke-width="5"/>
<path d="M34.8278 40.9687C21.7645 63.5951 18.178 85.9809 26.8171 90.9687C35.4563 95.9565 53.0497 81.6576 66.113 59.0312C79.1764 36.4048 82.7629 14.0191 74.1238 9.03124C65.4846 4.04341 47.8912 18.3423 34.8278 40.9687Z" stroke="#61DAFB" stroke-width="5"/>
</svg>
