<svg width="101" height="100" viewBox="0 0 101 100" fill="none" xmlns="http://www.w3.org/2000/svg">
<path d="M50.4976 20C37.1638 20 28.8307 26.665 25.4969 39.9937C30.4976 33.3287 36.331 30.8303 42.9972 32.4959C46.8012 33.4463 49.5197 36.206 52.5296 39.2597C57.4314 44.234 63.1048 49.9912 75.4982 49.9912C88.8307 49.9912 97.1651 43.3262 100.498 29.9962C95.4982 36.6612 89.6647 39.1609 82.9972 37.4953C79.1946 36.5449 76.476 33.7851 73.4662 30.7315C68.5643 25.7571 62.8897 20 50.4976 20ZM25.4969 49.9912C12.1644 49.9912 3.83006 56.6562 0.497559 69.9862C5.49693 63.3212 11.3304 60.8215 17.9979 62.4884C21.8005 63.44 24.5191 66.1985 27.5289 69.2509C32.4308 74.2252 38.1054 79.9836 50.4976 79.9836C63.8313 79.9836 72.1644 73.3187 75.4982 59.9887C70.4976 66.6537 64.6641 69.1534 57.9979 67.4865C54.1939 66.5374 51.4754 63.7763 48.4655 60.724C43.5637 55.7496 37.8903 49.9912 25.4969 49.9912Z" fill="#06B6D4"/>
</svg>
