<svg width="101" height="100" viewBox="0 0 101 100" fill="none" xmlns="http://www.w3.org/2000/svg">
<path d="M0.830505 0H100.831V100H0.830505V0Z" fill="#017ACB"/>
<path d="M48.8462 37.0312H53.6431V45.3125H40.6743V82.1562L40.3305 82.25C39.8618 82.375 33.6899 82.375 32.3618 82.2344L31.2993 82.1406V45.3125H18.3305V37.0312L22.4399 36.9844C24.6899 36.9531 30.4712 36.9531 35.2837 36.9844C40.0962 37.0156 46.1899 37.0312 48.8462 37.0312ZM85.4556 78.25C83.5494 80.2656 81.5025 81.3906 78.0962 82.3125C76.6119 82.7187 76.3619 82.7344 73.0181 82.7188C69.6743 82.7031 69.4087 82.7031 67.7837 82.2812C63.5806 81.2031 60.19 79.0937 57.8774 76.1094C57.2212 75.2656 56.1431 73.5156 56.1431 73.2969C56.1431 73.2344 56.2993 73.0937 56.5024 73C56.7056 72.9062 57.1274 72.6406 57.4712 72.4375C57.8149 72.2344 58.4399 71.8594 58.8618 71.6406C59.2837 71.4219 60.5025 70.7031 61.565 70.0625C62.6275 69.4219 63.5962 68.9062 63.7056 68.9062C63.815 68.9062 64.0181 69.125 64.1743 69.3906C65.1118 70.9687 67.2993 72.9844 68.8462 73.6719C69.7993 74.0781 71.9087 74.5312 72.9243 74.5312C73.8619 74.5312 75.5806 74.125 76.5025 73.7031C77.4869 73.25 77.9869 72.7969 78.5806 71.8906C78.9869 71.25 79.0337 71.0781 79.0181 69.8594C79.0181 68.7344 78.9556 68.4219 78.6431 67.9062C77.7681 66.4687 76.5806 65.7187 71.7681 63.5937C66.7993 61.3906 64.565 60.0781 62.7525 58.3125C61.4087 57 61.1431 56.6406 60.2993 55C59.2056 52.8906 59.065 52.2031 59.0493 49.0625C59.0337 46.8594 59.0806 46.1406 59.3149 45.3906C59.6431 44.2656 60.7056 42.0937 61.19 41.5469C62.19 40.375 62.5493 40.0156 63.2525 39.4375C65.3775 37.6875 68.69 36.5312 71.8618 36.4219C72.2212 36.4219 73.4087 36.4844 74.5181 36.5625C77.7056 36.8281 79.8775 37.6094 81.9712 39.2812C83.5494 40.5312 85.94 43.4688 85.7056 43.8594C85.5494 44.0938 79.315 48.25 78.9087 48.375C78.6587 48.4531 78.4869 48.3594 78.1431 47.9531C76.0181 45.4062 75.1587 44.8594 73.0962 44.7344C71.6275 44.6406 70.8462 44.8125 69.8618 45.4687C68.8306 46.1562 68.3306 47.2031 68.3306 48.6562C68.3462 50.7812 69.1587 51.7812 72.1587 53.2656C74.0962 54.2187 75.7525 55 75.8775 55C76.065 55 80.0806 57 81.1275 57.625C86.0025 60.4844 87.9869 63.4219 88.5025 68.4844C88.8775 72.2969 87.7994 75.7812 85.4556 78.25Z" fill="white"/>
</svg>
