<svg width="51" height="70" viewBox="0 0 51 70" fill="none" xmlns="http://www.w3.org/2000/svg">
<path d="M33.1858 25.2838L26.1848 31.8023L19.6861 18.6886L23.0433 11.1485C23.8918 9.64439 25.2795 9.62453 26.1281 11.1485L33.1858 25.2838Z" fill="#FFA000"/>
<path d="M26.1878 31.7995L0 56.1568L19.6891 18.6886L26.1878 31.7995Z" fill="#F57F17"/>
<path d="M40.8623 15.3145C42.1166 14.1197 43.4078 14.5227 43.7342 16.2198L50.5422 55.8277L27.9614 69.3842C27.1696 69.8269 25.0696 70 25.0696 70C25.0696 70 23.1597 69.7673 22.4276 69.3643L0 56.1568L40.8623 15.3145Z" fill="#FFCA28"/>
<path d="M19.6891 18.6886L0 56.1568L8.77465 1.39196C9.10384 -0.30508 10.0659 -0.478189 10.9343 1.02587L19.6891 18.6886Z" fill="#FFA000"/>
</svg>
