<svg width="24" height="24" viewBox="0 0 24 24" fill="none" xmlns="http://www.w3.org/2000/svg">
<path fill-rule="evenodd" clip-rule="evenodd" d="M12.0556 0.244843C5.43964 0.244843 0.0913086 5.6326 0.0913086 12.298C0.0913086 17.626 3.51817 22.136 8.27213 23.7323C8.86649 23.8523 9.08421 23.4729 9.08421 23.1538C9.08421 22.8744 9.06462 21.9166 9.06462 20.9186C5.73645 21.6372 5.04339 19.4818 5.04339 19.4818C4.50853 18.0849 3.71604 17.7259 3.71604 17.7259C2.62674 16.9875 3.79539 16.9875 3.79539 16.9875C5.00372 17.0674 5.63776 18.2248 5.63776 18.2248C6.70723 20.0605 8.43057 19.5418 9.12388 19.2225C9.22282 18.4442 9.53996 17.9054 9.8767 17.6061C7.22225 17.3267 4.42943 16.2891 4.42943 11.6593C4.42943 10.3422 4.90453 9.26468 5.65735 8.42664C5.53857 8.12737 5.12249 6.8899 5.77637 5.23366C5.77637 5.23366 6.78657 4.91431 9.06437 6.47088C10.0396 6.20705 11.0453 6.07283 12.0556 6.0717C13.0658 6.0717 14.0956 6.21154 15.0465 6.47088C17.3245 4.91431 18.3347 5.23366 18.3347 5.23366C18.9886 6.8899 18.5723 8.12737 18.4535 8.42664C19.2262 9.26468 19.6817 10.3422 19.6817 11.6593C19.6817 16.2891 16.8889 17.3066 14.2146 17.6061C14.6505 17.9853 15.0267 18.7035 15.0267 19.8411C15.0267 21.4574 15.0071 22.7546 15.0071 23.1536C15.0071 23.4729 15.225 23.8523 15.8191 23.7325C20.5731 22.1358 24 17.626 24 12.298C24.0196 5.6326 18.6516 0.244843 12.0556 0.244843Z" fill="white"/>
</svg>
