<svg width="23" height="22" viewBox="0 0 23 22" fill="none" xmlns="http://www.w3.org/2000/svg">
<path fill-rule="evenodd" clip-rule="evenodd" d="M20.0743 21.998H2.96623C1.61644 21.998 0.522217 20.9038 0.522217 19.554V2.44596C0.522217 1.09617 1.61644 0.00195312 2.96623 0.00195312H20.0743C21.4241 0.00195312 22.5183 1.09617 22.5183 2.44596V19.554C22.5183 20.9038 21.4241 21.998 20.0743 21.998ZM16.198 18.9431H19.4621V12.2377C19.4621 9.40058 17.8538 8.0288 15.6075 8.0288C13.36 8.0288 12.4142 9.77893 12.4142 9.77893V8.35236H9.26854V18.9431H12.4142V13.3836C12.4142 11.894 13.0999 11.0075 14.4124 11.0075C15.6188 11.0075 16.198 11.8593 16.198 13.3836V18.9431ZM3.57604 5.0113C3.57604 6.09053 4.44429 6.96559 5.51577 6.96559C6.58725 6.96559 7.45499 6.09053 7.45499 5.0113C7.45499 3.93207 6.58725 3.057 5.51577 3.057C4.44429 3.057 3.57604 3.93207 3.57604 5.0113ZM7.1716 18.9431H3.89148V8.35236H7.1716V18.9431Z" fill="white"/>
</svg>
