<svg width="70" height="70" viewBox="0 0 70 70" fill="none" xmlns="http://www.w3.org/2000/svg">
<path d="M15.5526 0H54.3109C56.1968 0 58.0282 0.300781 59.8048 0.929688C62.3741 1.85938 64.6974 3.5 66.4467 5.63281C68.2234 7.76562 69.3987 10.3906 69.8087 13.125C69.9727 14.1367 70 15.1484 70 16.1602V53.9766C70 55.1797 69.9454 56.4102 69.6994 57.5859C69.1527 60.293 67.8681 62.8359 66.0094 64.8867C64.1781 66.9375 61.7728 68.4688 59.1761 69.2891C57.5908 69.7812 55.9508 70 54.2835 70C53.5455 70 15.4432 70 14.8692 69.9727C12.0813 69.8359 9.32062 68.9336 6.99731 67.375C4.72867 65.8438 2.87002 63.7109 1.66736 61.25C0.628705 59.1445 0.109377 56.793 0.109377 54.4414V15.5586C0.0547107 13.2344 0.546706 10.9375 1.55803 8.85938C2.73335 6.39844 4.56467 4.23828 6.83331 2.70703C9.15662 1.12109 11.8899 0.191406 14.6779 0.0546875C14.9512 0 15.2519 0 15.5526 0Z" fill="url(#paint0_linear_16_470)"/>
<path d="M59.0394 57.2578C58.7934 56.875 58.52 56.4922 58.2194 56.1367C57.5361 55.3164 56.7434 54.6055 55.8687 54.0039C54.7754 53.2656 53.4908 52.8008 52.1788 52.7461C51.2495 52.6914 50.3201 52.8555 49.4455 53.1836C48.5708 53.4844 47.7235 53.9219 46.9035 54.3594C45.9468 54.8516 44.9902 55.3438 43.9789 55.7539C42.7762 56.2461 41.5189 56.6289 40.2342 56.9023C38.6216 57.2031 36.9816 57.3125 35.369 57.2852C32.4443 57.2305 29.5197 56.793 26.7317 55.9727C24.2717 55.2344 21.9211 54.2227 19.7071 52.9375C17.7665 51.8164 15.9625 50.5312 14.2678 49.082C12.8739 47.8789 11.5892 46.5938 10.3866 45.2266C9.56656 44.2695 8.77391 43.2578 8.03591 42.2188C7.73525 41.8086 7.46192 41.3711 7.21592 40.9336L0 33.1406V15.5039C0 6.94531 6.91526 0 15.4705 0H29.2737L39.4962 10.3906C62.5653 26.0859 55.1034 43.3945 55.1034 43.3945C55.1034 43.3945 61.6633 50.7773 59.0394 57.2578Z" fill="url(#paint1_linear_16_470)"/>
<path d="M39.5509 10.3906C62.6199 26.0859 55.158 43.3945 55.158 43.3945C55.158 43.3945 61.7179 50.8047 59.0666 57.2852C59.0666 57.2852 56.3607 52.7461 51.8234 52.7461C47.4501 52.7461 44.8808 57.2852 36.0796 57.2852C16.4818 57.2852 7.21593 40.9062 7.21593 40.9062C24.873 52.5273 36.9269 44.2969 36.9269 44.2969C28.973 39.6758 12.0539 17.582 12.0539 17.582C26.7864 30.1328 33.1549 33.4414 33.1549 33.4414C29.3557 30.2969 18.6958 14.9297 18.6958 14.9297C27.2237 23.5703 44.1701 35.6289 44.1701 35.6289C48.9808 22.2852 39.5509 10.3906 39.5509 10.3906Z" fill="white"/>
<defs>
<linearGradient id="paint0_linear_16_470" x1="41.5831" y1="-2.49785" x2="28.3716" y2="72.5114" gradientUnits="userSpaceOnUse">
<stop stop-color="#FAAE42"/>
<stop offset="1" stop-color="#EF3E31"/>
</linearGradient>
<linearGradient id="paint1_linear_16_470" x1="41.8884" y1="1.38186" x2="29.599" y2="68.2838" gradientUnits="userSpaceOnUse">
<stop stop-color="#E39F3A"/>
<stop offset="1" stop-color="#D33929"/>
</linearGradient>
</defs>
</svg>
